<?xml version="1.0" encoding="UTF-8" standalone="no"?>
<!-- Created with Inkscape (http://www.inkscape.org/) -->

<svg
   xmlns:dc="http://purl.org/dc/elements/1.1/"
   xmlns:cc="http://creativecommons.org/ns#"
   xmlns:rdf="http://www.w3.org/1999/02/22-rdf-syntax-ns#"
   xmlns:svg="http://www.w3.org/2000/svg"
   xmlns="http://www.w3.org/2000/svg"
   xmlns:sodipodi="http://sodipodi.sourceforge.net/DTD/sodipodi-0.dtd"
   xmlns:inkscape="http://www.inkscape.org/namespaces/inkscape"
   width="67.774178mm"
   height="59.91964mm"
   viewBox="0 0 240.14472 212.31368"
   id="svg7736"
   version="1.1"
   inkscape:version="0.91 r13725"
   sodipodi:docname="skull and lantern.svg">
  <defs
     id="defs7738" />
  <sodipodi:namedview
     id="base"
     pagecolor="#ffffff"
     bordercolor="#666666"
     borderopacity="1.0"
     inkscape:pageopacity="0.0"
     inkscape:pageshadow="2"
     inkscape:zoom="0.62484436"
     inkscape:cx="485.43924"
     inkscape:cy="-26.226557"
     inkscape:document-units="px"
     inkscape:current-layer="layer1"
     showgrid="false"
     fit-margin-top="0"
     fit-margin-left="0"
     fit-margin-right="0"
     fit-margin-bottom="0"
     inkscape:window-width="1366"
     inkscape:window-height="705"
     inkscape:window-x="-8"
     inkscape:window-y="-8"
     inkscape:window-maximized="1" />
  <metadata
     id="metadata7741">
    <rdf:RDF>
      <cc:Work
         rdf:about="">
        <dc:format>image/svg+xml</dc:format>
        <dc:type
           rdf:resource="http://purl.org/dc/dcmitype/StillImage" />
        <dc:title></dc:title>
      </cc:Work>
    </rdf:RDF>
  </metadata>
  <g
     inkscape:label="Layer 1"
     inkscape:groupmode="layer"
     id="layer1"
     transform="translate(152.27346,-1207.6271)">
    <path
       style="fill:#000000"
       d="m -109.50195,1417.8184 c 4.95,-0.9043 13.949997,-2.264 19.999997,-3.0235 14.3467,-1.8011 21.9619,-3.3467 39,-7.9121 10.4388,-2.7972 12.496125,-3.684 12.578125,-5.4199 0.0491,-1.0397 0.270384,-1.199 0.583984,-0.4219 0.6591,1.6333 2.360791,1.5757 8.650391,-0.289 21.8763992,-6.4861 33.6874999,-11.3747 33.6874999,-13.9434 0,-0.7963 0.9,-1.9289 2,-2.5176 3.0786001,-1.6476 2.6287375,-6.934 -0.9765625,-11.4707 -2.2995,-2.8935 -2.7574188,-4.1574 -2.0117188,-5.5508 0.8947,-1.6718 1.3503626,-1.7005 6.2265624,-0.3925 3.5143,0.9427 10.741219,1.4118 21.761719,1.4218 21.4922,0.015 37,-2.53 37,-6.0742 0,-1.9829 -3.187275,-2.1095 -15.234375,-0.6016 -21.9116,2.7427 -50.1578876,0.9892 -51.5546876,-3.2011 -0.3336,-1.001 0.014428,-1.0856 1.4238281,-0.3438 3.0218,1.5904 10.9181345,2.3075 26.3652345,2.3907 20.9476,0.1127 30.181453,-1.2664 34.876953,-5.209 2.179,-1.8296 2.322838,-2.4899 1.710938,-7.8985 -0.573701,-5.071 -0.405847,-6.0894 1.189453,-7.2363 5.6314,-4.0486 15.979303,-24.5342 17.595703,-34.834 0.3884,-2.475 1.221815,-5.9469 1.853515,-7.7148 0.8562,-2.3957 0.861632,-3.7966 0.01953,-5.5 -0.6214,-1.2571 -1.420591,-3.8602 -1.775391,-5.7852 -2.0808,-11.291 -5.797647,-19.7498 -12.560547,-28.5801 -3.167,-4.1351 -3.845691,-5.7913 -3.650391,-8.9121 0.211301,-3.3777 -0.147278,-4.0637 -3.017578,-5.7676 -2.1373,-1.2684 -5.9199,-2.1145 -11,-2.4609 -4.2583,-0.2904 -7.861412,-0.8102 -8.007812,-1.1543 -1.4447,-3.394 -2.288619,-3.625 -13.199219,-3.625 -6.0698,0 -11.035256,-0.2483 -11.035156,-0.5508 0,-0.3025 0.539219,-1.09 1.199219,-1.75 0.9333,-0.9333 0.9333,-1.1992 0,-1.1992 -0.66,0 -1.199219,0.45 -1.199219,1 0,0.55 -0.589247,1 -1.310547,1 -0.7213,0 -2.278284,0.9 -3.458984,2 -1.1807,1.1 -2.444141,2 -2.806641,2 -1.1973,0 -16.4238281,10.3828 -16.4238281,11.1992 0,0.4399 -0.4695688,0.8008 -1.0429688,0.8008 -1.2493,0 -9.7627401,6.2047 -16.4316401,11.9766 -5.5983,4.8453 -9.41366,7.4672 -10.00586,6.875 -0.2301,-0.2301 4.255097,-4.3787 9.966797,-9.2207 7.4329,-6.3013 10.2345687,-9.2783 9.8554688,-10.4688 -0.4222004,-1.3259 -0.3288625,-1.3808 0.4609374,-0.2715 0.8225004,1.1552 1.5198688,1.015 4.1054688,-0.8261 1.7134,-1.22 2.8157184,-2.704 2.4492188,-3.2969 -0.3953,-0.6396 -0.1987251,-0.7874 0.484375,-0.3652 0.64759976,0.4002 5.0217937,-1.9388 9.9960937,-5.3457 4.8639005,-3.3314 9.3279215,-6.0567 9.9199215,-6.0567 0.5919,0 1.224904,-0.3837 1.408203,-0.8515 0.5185,-1.323 8.614154,-6.1485 10.314454,-6.1485 0.8359,0 1.519531,-0.4383 1.519531,-0.9726 0,-0.5343 1.4625,-1.3479 3.25,-1.8086 2.2812,-0.588 3.348425,-1.5071 3.578125,-3.086 0.4867,-3.3456 3.576816,-2.3184 3.853516,1.2813 0.511599,6.6562 -3.011916,14.3302 -3.853516,8.3926 -0.2811,-1.9805 -0.820825,-2.2628 -3.828125,-1.9903 -1.925,0.1745 -3.998775,0.962 -4.609375,1.75 -0.6106,0.7881 -1.9606,1.4459 -3,1.4629 -4.7274,0.076 1.673531,1.8713 8.894531,2.4942 l 7.714844,0.666 0.162109,-3.3457 c 0.0893,-1.8395 0.271497,-5.1156 0.404297,-7.2813 0.3122,-5.0902 -1.066106,-8.6189 -3.628906,-9.289 -1.2623,-0.3301 -2.26486,-1.6602 -2.630859,-3.4903 -0.793701,-3.9684 -2.873824,-4.5421 -5.640626,-1.5566 -1.9569,2.1115 -3.452743,2.5404 -10.527343,3.0254 -6.9943,0.4793 -8.558628,0.9208 -10.298828,2.9062 -2.7474023,3.1344 -3.6406254,5.6756 -3.6406254,10.3594 0,2.1794 -0.5374906,4.0952 -1.2128906,4.3203 -0.9082,0.3027 -0.8764531,0.6107 0.1230469,1.2285 1.0303,0.6367 0.8850812,0.9927 -0.6367188,1.5567 -1.0846,0.4019 -2.1976562,1.0112 -2.4726562,1.3554 -0.275,0.3442 -2.2320094,1.9289 -4.3496094,3.5196 -3.1065,2.3336 -4.6998,2.8394 -8.25,2.6211 -2.6401995,-0.1624 -4.4003905,0.1592 -4.4003905,0.8046 0,0.5915 -0.665969,1.0762 -1.480469,1.0762 -1.3683,0 -1.979869,1.4354 -2.730469,6.416 -0.1589,1.0545 -0.851262,2.105 -1.539062,2.334 -0.7939,0.2643 -1.030331,-0.1609 -0.644531,-1.166 0.8642,-2.2523 -0.545382,-1.96 -2.738282,0.5684 -2.3099,2.6633 -2.325287,2.9484 -0.117187,2.1562 0.9625,-0.3453 -0.375809,1.502 -2.974609,4.1055 -2.842101,2.8471 -5.194897,4.4442 -5.904297,4.0058 -0.7104,-0.4391 -0.915572,-0.3007 -0.513672,0.3496 0.3669,0.5937 0.124737,2.2716 -0.539063,3.7286 -0.9218,2.0233 -0.93197,3.0901 -0.04297,4.5136 1.6667,2.6689 -0.354232,8.372 -2.644532,7.4629 -1.9793,-0.7857 -3.523115,-1.1098 -9.791015,-2.0566 -18.5461,-2.8016 -36.278116,2.0129 -46.228516,12.5508 -3.5954,3.8077 -8.918374,12.3993 -9.697261,15.6523 -0.379,1.583 -1.04652,3.3363 -1.48242,3.8965 -1.6656,2.1408 -3.16672,14.9137 -2.51172,21.3672 0.9175,9.0402 1.05519,9.7558 2.17969,11.2812 0.5407,0.7334 1.63911,2.684 2.441398,4.334 1.536502,3.1603 8.246232,10.0126 19.582032,20 l 6.810547,6 -12.466797,0.5918 c -10.1391,0.4815 -14.39744,1.1953 -22.81054,3.8223 -6.21468,1.3069 -9.35745,1.9679 -15.08435,4.2529 -19.15114,-0.066 -59.53829,52.552 14.4281,39.3604 z M 35.058594,1220.291 c 0.5176,0 0.941406,0.45 0.941406,1 0,0.55 -0.701194,1 -1.558594,1 -0.858,0 -1.281306,-0.45 -0.941406,-1 0.3399,-0.55 1.041094,-1 1.558594,-1 z m -5.289063,0.5801 c 0.664369,-0.028 0.828278,0.3049 0.548828,1.0332 -0.6042,1.5745 -1.934546,1.8163 -2.748047,0.5 -0.301299,-0.4875 0.312635,-1.1114 1.365235,-1.3867 0.33495,-0.088 0.612528,-0.1373 0.833984,-0.1465 z m -4.158203,2.7637 c 0.119531,0.02 0.251172,0.071 0.388672,0.1562 0.55,0.3399 1,0.8161 1,1.0586 0,0.2426 -0.45,0.4414 -1,0.4414 -0.55,0 -1,-0.4762 -1,-1.0586 0,-0.4369 0.252734,-0.6579 0.611328,-0.5976 z m 14,15 c 0.119531,0.02 0.251172,0.071 0.388672,0.1562 0.55,0.3399 1,0.8161 1,1.0586 0,0.2426 -0.45,0.4414 -1,0.4414 -0.55,0 -1,-0.4762 -1,-1.0586 0,-0.4369 0.252734,-0.6579 0.611328,-0.5976 z m -22.259766,2.875 c 4.095951,-0.019 10.517988,0.3644 20.648438,1.1406 5.943,0.4554 6,0.4705 6,1.707 0,0.6095 -0.851075,0.7972 -1.984375,0.4375 -1.0915,-0.3466 -5.029,-0.5401 -8.75,-0.4316 -3.720507,0.1085 -10.345887,0.2495 -14.720703,0.3125 -7.587175,0.1099 -7.984402,0.2301 -8.6484376,2.6152 l -0.6972656,2.5 -0.099609,-2.6797 c -0.0548,-1.4732 0.6474478,-3.4247 1.5605462,-4.3379 0.82555,-0.8255 2.595456,-1.2452 6.691406,-1.2636 z m 29.765626,0.7812 c 0.549998,0 0.722712,0.45 0.382812,1 -0.3399,0.55 -1.067186,1 -1.617188,1 -0.55,0 -0.722712,-0.45 -0.382812,-1 0.3399,-0.55 1.067186,-1 1.617188,-1 z m 3.09375,0.1035 c 1.187367,0 2.789062,0.8986 2.789062,1.8653 0,1.2706 -1.035003,1.2945 -2.970703,0.07 -0.8092,-0.5117 -1.165769,-1.2345 -0.792969,-1.6074 0.228775,-0.2288 0.578816,-0.3287 0.97461,-0.3282 z m 6.021484,0.3418 c 0.422179,0.016 0.900369,0.064 1.433594,0.1485 4.9932,0.7935 8.333984,2.1481 8.333984,3.3808 0,1.1789 -0.5498,1.1836 -4,0.033 -1.375,-0.4584 -3.7375,-1.1058 -5.25,-1.4394 -3.635713,-0.8019 -3.472835,-2.2324 -0.517578,-2.1231 z m -67.615234,0.5547 c 0.824999,0 1.222712,0.45 0.882812,1 -0.3399,0.55 -1.292184,1 -2.117188,1 -0.824999,0 -1.222712,-0.45 -0.882812,-1 0.3399,-0.55 1.292184,-1 2.117188,-1 z m 44.941406,2 c 0.2426,0 0.441406,0.45 0.441406,1 0,0.55 -0.476194,1 -1.058594,1 -0.5825,0 -0.781306,-0.45 -0.441406,-1 0.3399,-0.55 0.816094,-1 1.058594,-1 z m -8.617188,1.1543 c 0.105925,0.044 -0.189753,0.4297 -0.814453,1.1856 -0.9665,1.1694 -1.021453,1.6601 -0.189453,1.6601 0.6494,0 0.921416,0.4213 0.603516,0.9356 -0.3179,0.5144 0.891553,1.0769 2.689453,1.25 4.7478,0.4572 4.005231,2.2161 -1.230469,2.914 l -4.5,0.5996 5.625,0.1504 c 3.0938,0.083 7.10195,0.4458 8.90625,0.8067 2.3566,0.4713 3.077753,0.3305 2.564453,-0.5 -0.393,-0.6359 -1.811797,-1.1563 -3.154297,-1.1563 -2.7445,0 -3.271575,-1.467 -0.859375,-2.3926 3.0287,-1.1622 5.945406,-0.5947 7.191407,1.4004 0.6897,1.1045 2.634665,5.4844 4.322265,9.7324 3.16,7.9554 4.951997,20.9262 3.904297,28.2598 l -0.5,3.5 -20.677734,0.2695 c -11.5685,0.1511 -20.9257816,-0.1271 -21.2382816,-0.6328 -0.3073,-0.4971 -0.1275625,-4.2197 0.3984375,-8.2715 0.5259,-4.051 0.9693281,-8.1187 0.9863281,-9.039 0.017,-0.9203 1.162322,-3.0172 2.544922,-4.6602 2.8007,-3.3285 5.962872,-10.166 4.701172,-10.166 -0.4469,0 -1.382125,1.575 -2.078125,3.5 -0.6961,1.925 -1.735394,3.5 -2.308594,3.5 -0.5733,0 -0.767841,-0.7176 -0.431641,-1.5937 0.3362,-0.8761 0.875766,-2.7886 1.197266,-4.25 2.3176,-10.5358 5.140206,-14.6742 8.566406,-12.5567 0.7684,0.4749 0.981075,0.2107 0.609375,-0.7578 -0.3372,-0.8788 0.308278,-2.0323 1.580078,-2.8242 0.9788,-0.6095 1.485872,-0.9071 1.591797,-0.8633 z m -4.878906,0.016 c 0.527182,-0.062 0.659019,0.394 0.332031,1.2461 -0.3342,0.871 -1.046984,1.584 -1.583984,1.584 -1.3144,0 -0.492947,-2.2732 1.001953,-2.7715 0.09134,-0.03 0.174688,-0.05 0.25,-0.059 z m 13.558594,2.2188 c 0.121481,0 0.254781,0.035 0.394531,0.1211 0.559,0.3454 0.757806,1.0466 0.441406,1.5586 -0.8572,1.387 -1.457031,1.1295 -1.457031,-0.627 0,-0.6434 0.25665,-1.0406 0.621094,-1.0527 z m -24.6621096,1.8047 c 0.4081414,-0.011 0.7568163,-0.01 1.0292968,0 0.3633078,0.016 0.5932188,0.052 0.6523438,0.1114 0.2365,0.2366 -0.445272,2.8527 -1.5136719,5.8125 -3.6612,10.1421 -6.147225,19.4125 -7.578125,28.2519 -0.78759985,4.8652 -1.57063435,8.9347 -1.74023435,9.043 -0.1696,0.1082 -2.60044375,-0.1082 -5.40234375,-0.4805 -4.3063,-0.5723 -5.732909,-1.3538 -9.224609,-5.0547 -2.7684,-2.9343 -4.13925,-5.2969 -4.15625,-7.1601 -0.0332,-3.6914 4.398618,-14.1372 8.324218,-19.6192 5.9407017,-8.2959 7.9998504,-9.7671 14.7187504,-10.5273 1.9002375,-0.215 3.6662007,-0.3469 4.890625,-0.3789 z m 41.8261716,0.9179 c 0.256105,-0.016 0.555903,0.014 0.900391,0.084 3.1632,0.6441 10.751625,23.5332 11.953125,36.0547 l 0.648437,6.75 -3.175781,0 c -3.4249,0 -4.688187,-1.6818 -3.804687,-5.0605 1.0739,-4.1064 -2.344569,-23.0685 -5.355469,-29.709 -2.582913,-5.6964 -2.958746,-8.0064 -1.166016,-8.1192 z m 10.333985,1.0547 c 5.884919,-0.1135 17.173792,21.5617 18.091797,35.834 l 0.289062,4.5 -5.107422,0.2969 -5.105469,0.2969 -0.550781,-5.7969 c -0.5702,-6.0106 -5.382225,-24.0352 -8.140625,-30.4941 -1.0027,-2.3483 -1.213325,-3.9219 -0.578125,-4.3145 0.339613,-0.2099 0.709235,-0.3147 1.101563,-0.3223 z m -79.908203,11.9414 c 0.455412,0.097 0.169762,1.159 -1.054688,3.1426 -1.1034,1.7875 -2.542419,5.3875 -3.199219,8 -1.0751,4.2766 -2.592325,5.7807 -4.203125,4.1699 -1.0565,-1.0565 2.470406,-9.8753 5.066406,-12.6699 1.740201,-1.8733 2.935213,-2.74 3.390626,-2.6426 z m 15.0332026,1.8926 c -0.55,0 -1.5594406,0.675 -2.2441406,1.5 -0.6944,0.8367 -0.8019406,1.5 -0.2441406,1.5 0.55,0 1.5594406,-0.675 2.2441406,-1.5 0.6944,-0.8367 0.8019406,-1.5 0.2441406,-1.5 z m -1.3945312,8 c -0.275,0 -1.5578094,1.125 -2.8496094,2.5 -1.2918,1.375 -2.122656,2.5 -1.8476562,2.5 0.2749996,0 1.5558562,-1.125 2.8476562,-2.5 1.2918,-1.375 2.1246094,-2.5 1.8496094,-2.5 z m -49.8378904,1.2227 c 4.417551,0 9.140781,0.6557 17.488281,2.289 4.2282,0.8273 16.496581,7.1557 19.613281,10.1172 3.0915,2.9374 7.108107,10.7519 9.3789065,18.2442 0.8955,2.9545 2.5394438,6.6021 3.6523437,8.1074 1.7255,2.3338 1.9095063,3.5322 1.2539063,8.1289 -1.2959,9.0868 -0.8709844,13.7589 1.4785156,16.2598 2.64080012,2.811 2.65760941,4.5665 0.099609,10.1816 l -2.0214844,4.4394 2.2070313,4.2559 c 1.21459988,2.3401 2.3021156,6.157 2.4160156,8.4824 0.1412,2.8842 1.0357531,5.2123 2.8144531,7.3262 3.0481,3.6226 3.2830219,6.5958 0.8574219,10.8574 -1.4816,2.6032 -2.3634,3.0856 -5.75,3.1426 -15.4317996,0.2608 -24.4153996,0.84 -26.9999996,1.7383 -10.7114,3.723 -12.169772,2.2872 -17.888672,-17.5938 l -2.675781,-9.3007 2.15625,-2.6993 c 2.0575,-2.5751 2.12294,-2.5903 1.431641,-0.3437 -0.398601,1.2952 -0.171594,4.3274 0.503906,6.7402 1.8821,6.7222 7.972656,12.3788 7.972656,7.4043 0,-2.2136 1.545044,-2.7093 2.339844,-0.75 0.3994,0.9842 0.702634,0.9732 1.427734,-0.057 0.5943,-0.844 1.862872,-1.0726 3.576172,-0.6426 1.5063,0.3781 2.65625,0.2474 2.65625,-0.3027 0,-0.5339 1.125,-0.755 2.5,-0.4922 1.375,0.2629 2.5,0.8754 2.5,1.3613 0,0.4859 0.396912,0.8828 0.882812,0.8828 1.485002,0 1.86575,-4.6222 0.53125,-6.4472 -1.1692,-1.5995 -1.33164,-1.5733 -2.36914,0.3652 -1.2988,2.4269 -3.853894,2.744 -4.683594,0.582 -0.3166,-0.825 -0.97755,-1.5 -1.46875,-1.5 -0.4911,0 -0.892578,0.675 -0.892578,1.5 0,1.8395 -4.607444,2.0552 -5.339844,0.25 -0.3943,-0.9718 -0.719484,-0.9476 -1.458984,0.1074 -1.4072,2.0073 -5.177013,0.4673 -5.320313,-2.1738 -0.065,-1.2004 -0.05166,-2.5549 0.02734,-3.0098 0.0793,-0.4549 -0.295278,-2.4127 -0.830078,-4.3496 -0.9891,-3.5824 -0.408269,-5.5458 2.832031,-9.58 2.7646,-3.4419 0.284222,-2.7248 -5.517578,1.5957 -5.3877,4.0121 -6.810325,5.4695 -9.328125,9.5527 -0.711,1.153 -1.347037,1.0549 -3.710937,-0.5723 -4.1727,-2.8723 -10.242853,-5.5064 -11.251954,-4.8828 -0.481599,0.2977 -1.488481,-0.2029 -2.238281,-1.1113 -1.1588,-1.4039 -1.139947,-1.7267 0.126953,-2.1524 2.8754,-0.9663 7.009766,-6.021 7.009766,-8.5703 0,-1.4026 -0.982494,-4.5727 -2.183594,-7.0449 -2.0661,-4.2526 -2.091609,-4.596 -0.474609,-6.3828 0.9401,-1.0387 2.642403,-4.54 3.783203,-7.7813 2.7805,-7.9002 2.284906,-16.2649 -1.183594,-19.957 l -2.435547,-2.5918 -1.035156,2.5352 c -0.5698,1.394 -1.949306,3.5864 -3.066406,4.8711 -1.1171,1.2848 -2.351788,3.1681 -2.742188,4.1855 -0.3904,1.0174 -0.982406,1.5762 -1.316406,1.2422 -0.3341,-0.3341 0.165375,-2.2352 1.109375,-4.2246 2.2826,-4.8101 1.340825,-5.4779 -1.421875,-1.0078 -1.2076,1.9539 -2.636228,3.5527 -3.173828,3.5527 -1.1261,0 -0.538028,-1.1835 2.888672,-5.8144 2.6008,-3.5148 2.169881,-6.0891 -0.449219,-2.6836 -1.4635,1.9029 -1.503362,1.8546 -0.851562,-1.002 0.6096,-2.6717 0.519581,-2.8359 -0.824219,-1.5 -0.8298,0.825 -2.207647,2.85 -3.060547,4.5 -0.8529,1.65 -1.552734,2.325 -1.552734,1.5 -0.0013,-0.825 0.916262,-3.006 2.039062,-4.8476 1.2834,-2.1052 1.560394,-3.1913 0.746094,-2.9258 -0.7123,0.2322 -1.897266,1.6603 -2.634766,3.1738 -1.695,3.4787 -2.567556,2.8014 -1.160156,-0.9004 1.5554,-4.0913 0.545703,-4.118 -1.966797,-0.053 -1.2076,1.9539 -2.373344,3.5527 -2.589844,3.5527 -0.473,0 1.125797,-4.3275 2.654297,-7.1836 0.8548,-1.5973 0.810322,-1.9517 -0.205078,-1.6133 -0.7164,0.2388 -2.239463,2.2956 -3.384766,4.5704 -1.1453,2.2747 -2.374015,4.4248 -2.728515,4.7793 -0.9415,0.9411 0.356822,-3.5881 1.857422,-6.4805 0.7082,-1.3649 1.019053,-2.7273 0.689453,-3.0274 -0.3296,-0.3002 -0.7804,-0.047 -1,0.5625 -0.2195,0.6095 -1.080463,1.9595 -1.914063,3 -2.9666,3.7026 -0.413593,-2.7629 3.003907,-7.6074 6.003,-8.5095 15.931803,-13.3054 30.158203,-14.5683 1.527675,-0.1356 2.964983,-0.2084 4.4375,-0.209 z m 4.408203,2.1836 c -0.340838,0.065 -0.308438,0.7199 0.164062,1.9511 0.3467,0.9037 1.326335,1.6426 2.177735,1.6426 1.3084,0 1.267022,-0.3102 -0.267578,-2.0058 -1.02005,-1.1272 -1.733382,-1.6527 -2.074219,-1.5879 z m 4.61914,2.6015 c -0.173487,0.011 -0.02883,0.4491 0.291016,1.3242 0.3683,1.0075 0.669922,2.2027 0.669922,2.6563 0,0.4535 0.885297,0.5934 1.966797,0.3105 1.1213,-0.2932 3.1628,0.3786 4.75,1.5625 3.9144,2.9195 5.419503,2.5881 1.783203,-0.3925 -1.65,-1.3525 -3.640175,-2.4629 -4.421875,-2.4629 -0.7816,0 -2.318969,-0.7934 -3.417969,-1.7559 -0.9547,-0.8359 -1.447606,-1.2529 -1.621094,-1.2422 z m 13.544922,7.4473 c -0.23178,0.046 -0.273271,0.2378 -0.07617,0.5566 0.336,0.5437 1.033282,0.9883 1.550782,0.9883 1.4385,0 1.121072,-0.716 -0.611328,-1.3808 -0.2225,-0.085 -0.413,-0.1387 -0.570313,-0.1622 -0.117984,-0.018 -0.215708,-0.017 -0.292969,0 z m 4.541016,1.6719 c -0.388538,0.016 -0.704731,0.1188 -0.910156,0.3242 -0.3017,0.3018 0.183725,0.5488 1.078125,0.5488 2.504,0 6.52554,4.8871 6.05664,7.3594 -0.3691,1.9457 -0.313165,1.9281 0.615235,-0.1797 0.7926,-1.7995 0.631797,-2.8501 -0.720703,-4.6836 -1.382794,-1.8747 -4.435477,-3.4372 -6.119141,-3.3691 z m -26.105469,8.873 c -0.5605,0 -1.019531,0.9431 -1.019531,2.0957 0,1.1526 -0.950681,3.4318 -2.113281,5.0645 l -2.115235,2.9687 2.201172,2.3418 c 1.8235,1.941 2.004809,2.7017 1.066406,4.4551 -0.622499,1.1633 -0.784376,2.6695 -0.359374,3.3457 0.538099,0.8559 0.888896,0.6211 1.154296,-0.7715 0.2095,-1.1 0.888966,-2.6238 1.509766,-3.3867 0.8781,-1.0793 0.632478,-1.7178 -1.107422,-2.8731 -2.5486,-1.692 -2.856394,-3.867 -0.871094,-6.1621 1.8078,-2.0898 2.973897,-7.0781 1.654297,-7.0781 z m 35.066407,1.2598 c -0.04015,0.06 0.423468,0.4388 1.355468,1.1855 2.0403,1.6346 2.558594,1.8551 2.558594,1.0899 0,-0.2557 -1.0125,-0.955 -2.25,-1.5547 -1.0803,-0.5235 -1.623912,-0.7811 -1.664062,-0.7207 z m 75.753906,0.2285 c 0.23714,0.027 0.432709,0.1427 0.560547,0.3496 0.3178,0.5141 -0.31821,1.1691 -1.41211,1.4551 -2.3563,0.6162 -2.478825,0.3586 -0.578125,-1.2188 0.520375,-0.4318 1.034454,-0.6315 1.429688,-0.5859 z m 20.714844,0.8945 c 0.300643,-0.01 0.560113,-0.01 0.767578,0.01 0.276618,0.019 0.460265,0.06 0.52539,0.125 0.9347,0.9347 -2.156712,12.0929 -4.945312,17.8496 -3.3952,7.0089 -8.503866,15.1883 -11.634766,18.6269 -1.2469,1.3696 -2.267578,3.0571 -2.267578,3.75 0,0.6935 -0.45,1.2598 -1,1.2598 -1.4369,0 -1.231372,-2.2249 0.423828,-4.5879 2.0333,-2.903 6.47825,-17.0937 8.53125,-27.2343 l 1.753906,-8.6583 4.332032,-0.7382 c 1.340381,-0.2289 2.611737,-0.3676 3.513672,-0.3985 z m -82.7089849,0.2539 c 0.2339007,-0.01 0.4878188,-0.01 0.7558594,0 0.3573875,0.016 0.7397531,0.051 1.1269531,0.1074 l 2.81640628,0.4141 1.72265622,15.6699 c 0.9483,8.6185 2.6265156,18.8178 3.7285157,22.666 1.1021,3.8483 2.0039062,7.1108 2.0039062,7.25 0,0.1393 -0.6183469,0.2539 -1.3730469,0.2539 -0.8161,0 -1.6183687,-1.5439 -1.9804687,-3.8086 -0.3577,-2.2369 -1.6871563,-4.8155 -3.22265628,-6.25 -2.35380002,-2.199 -2.53929372,-2.8893 -1.87109372,-6.9414 1.29789986,-7.8716 0.93604706,-14.8033 -0.8769532,-16.8066 -1.7509997,-1.935 -4.8749281,-11.0629 -4.1738281,-12.1973 0.126675,-0.205 0.642048,-0.3296 1.34375,-0.3594 z M 7,1302.0332 l 4.9375,0.6504 c 2.7151,0.3602 12.203691,0.66 21.087891,0.6602 l 16.154297,0.01 -0.654297,5.2188 c -0.7319,5.8396 -3.984791,19.6281 -5.712891,24.2187 -2.167871,5.7586 -6.193288,14.0064 -7.457031,15.2793 C 33.807269,1349.6278 13,1349.3479 13,1347.7695 c 0,-0.4997 -2.842612,-11.4082 -3.5703125,-13.7011 -0.3103,-0.9776 -0.1674406,-1.7774 0.3183594,-1.7774 1.2650001,0 5.0856531,7.2698 4.5644531,8.6856 -0.3163,0.8593 2.642009,1.2729 10.724609,1.5 10.3528,0.2908 13.422503,-0.1659 11.033203,-1.6426 -0.529299,-0.3271 -4.993475,-0.6137 -9.921874,-0.6367 l -8.960938,-0.043 -1.222656,-2.9512 c -0.6726,-1.6237 -2.591272,-4.1044 -4.263672,-5.5117 -3.5789008,-3.0114 -4.5506251,-7.3603 -4.6406251,-20.7793 z m 55.294922,0.3535 c 1.500455,0.044 1.705078,0.5719 1.705078,2.2149 0,3.4679 -5.279753,21.1843 -8.251953,27.6894 -1.3822,3.025 -2.820666,6.5125 -3.197266,7.75 -0.4112,1.351 -1.481934,2.25 -2.677734,2.25 -1.0954,0 -1.732216,0.418 -1.416016,0.9297 0.5579,0.9026 8.657088,0.6188 13.367188,-0.4687 1.957,-0.4517 2.2731,-0.1844 2,1.6914 -0.2215,1.5214 -1.276219,2.4645 -3.324219,2.9687 -1.65,0.4062 -6.0375,0.8983 -9.75,1.0938 -7.5692,0.3985 -8.006972,-0.1005 -4.763672,-5.4336 2.8731,-4.7244 6.931235,-18.4201 8.927734,-30.1328 l 1.730469,-10.1485 3.677735,-0.3105 c 0.828475,-0.07 1.472504,-0.1084 1.972656,-0.094 z m -79.529297,10.0528 c -0.16994,-0.01 -0.320106,0 -0.445313,0.029 -2.9508,0.5679 -3.534768,7.4673 -1.042968,12.3222 1.1579,2.2558 2.197512,6.5147 2.382812,9.7676 0.1807,3.1724 0.999813,7.3743 1.820313,9.3379 0.8437,2.0192 2.040759,3.391 2.755859,3.1562 2.2989002,-0.755 1.9767572,-5.6869 -0.68164,-10.4433 -1.421104,-2.5426 -2.413732,-4.7914 -2.207032,-4.9981 0.2068,-0.2068 1.515858,0.058 2.910156,0.5879 4.2034022,1.5981 5.7683411,-0.4225 5.8691411,-7.582 0.0478,-3.3948 -0.2228094,-6.6716 -0.5996093,-7.2813 -0.994875,-1.6096 -8.2126138,-4.8195 -10.7617188,-4.8964 z m -17.255859,0.9082 c -0.213235,-0.01 -0.437224,-0.01 -0.669922,0 -2.393467,0.103 -5.790889,1.1012 -9.660156,2.9316 -10.7321,5.0811 -18.179688,12.383 -18.179688,17.8281 0,2.6828 3.606631,6.9713 6.269531,7.4551 4.3488,0.7902 11.355344,-0.8368 14.652344,-3.4023 4.1071,-3.1959 9.078125,-9.9529 9.078125,-12.3399 0,-1.3128 -1.0015,-2.7273 -2.5,-3.5293 -2.6768,-1.4326 -3.315656,-3 -1.222656,-3 2.2989,0 5.660619,-2.9991 5.074218,-4.5273 -0.346177,-0.9022 -1.349151,-1.3674 -2.841796,-1.416 z m 67.90625,9.3984 c -0.07726,-0.015 -0.174985,-0.016 -0.292969,0 -0.157313,0.024 -0.347813,0.077 -0.570313,0.1622 -0.8535,0.3276 -1.552734,0.772 -1.552734,0.9882 0,0.8099 1.904986,0.3545 2.492188,-0.5957 0.197099,-0.3188 0.155608,-0.5101 -0.07617,-0.5566 z m -61.179688,2.168 c -1.035058,0.06 -6.091669,12.5272 -5.482422,13.6757 0.4516,0.8514 2.936494,-0.7361 4.996094,-3.1914 1.3125,-1.5648 1.735266,-9.2881 0.572266,-10.4511 -0.0247,-0.025 -0.05255,-0.035 -0.08594,-0.033 z m -27.572266,1.8007 c 0.319964,0.034 0.335938,0.538 0.335938,1.543 0,1.1331 -0.5625,2.9813 -1.25,4.1074 -1.0636,1.7421 -0.960294,2.2619 0.691406,3.4864 1.0676,0.7915 2.699353,1.4394 3.626953,1.4394 0.9275,0 2.246941,0.675 2.931641,1.5 1.0658,1.2843 0.760547,1.4915 -2.126953,1.4375 -9.2638,-0.1741 -13.044994,-7.4355 -6.371094,-12.2344 1.21885,-0.8764 1.842147,-1.313 2.162109,-1.2793 z m 87.417969,0.068 c -0.179297,0.02 -0.375781,0.067 -0.582031,0.1465 -0.825,0.3166 -1.5,0.7525 -1.5,0.9687 0,0.2161 0.675,0.3926 1.5,0.3926 0.825,0 1.5,-0.436 1.5,-0.9687 0,-0.3996 -0.380078,-0.598 -0.917969,-0.5391 z m -52.566406,2.0234 c -0.09554,-0.01 -0.192439,0 -0.289063,0.012 -1.6748,0.2791 -3.480687,4.1908 -3.921874,9.1484 -0.4426,4.9742 -0.193382,6.2322 1.699218,8.6211 1.2187,1.5382 2.728169,2.6206 3.355469,2.4043 1.4334,-0.4943 1.423281,-18.3189 -0.01172,-19.7539 -0.265711,-0.2657 -0.545407,-0.4057 -0.832031,-0.4317 z m 52.402344,1.6075 c -0.3474,-0.014 -0.744519,0.049 -1.105469,0.1933 -0.7977,0.3192 -0.561484,0.5575 0.603516,0.6055 1.0541,0.043 1.6448,-0.1931 1.3125,-0.5254 -0.16615,-0.1662 -0.463147,-0.2591 -0.810547,-0.2734 z m 0.199219,2.8769 c -0.550001,0 -1.277288,0.45 -1.617188,1 -0.3399,0.55 -0.167188,1 0.382812,1 0.550001,0 1.277288,-0.45 1.617188,-1 0.3399,-0.55 0.167186,-1 -0.382812,-1 z m -52.316407,5.0449 c 0.415785,0.034 0.644385,1.2647 0.388672,3.4551 -0.2247,1.925 -0.809028,3.5 -1.298828,3.5 -1.0301,0 -1.114966,-1.5588 -0.259766,-4.75 0.410988,-1.5336 0.846534,-2.2314 1.169922,-2.2051 z m -26.40625,7.1621 C -48.09561,1345.4495 -55,1350.1163 -55,1351.3047 c 0,0.5422 0.5625,0.973 1.25,0.957 1.6228,-0.038 8.117634,-5.9352 7.365234,-6.6875 -0.04758,-0.048 -0.12136,-0.073 -0.220703,-0.076 z m -13.728515,0.2872 c -0.353338,0.013 -0.957141,0.3643 -1.666016,1.0058 -1.8768,1.6984 -2.686806,5.4792 -1.441406,6.7246 0.7121,0.7121 4.559706,-0.2155 6.191406,-1.4922 2.0224,-1.5823 1.5231,-4.7324 -0.75,-4.7324 -1.1,0 -2,-0.519 -2,-1.1543 0,-0.2456 -0.121982,-0.3596 -0.333984,-0.3515 z m 28.630859,0.6015 c -1.321244,-0.027 -6.457141,5.302 -7.462891,7.8945 -0.5311,1.3696 -0.679878,4.0142 -0.330078,5.879 0.4141,2.2075 0.977182,3.0501 1.613282,2.414 1.434499,-1.4345 7.010224,-15.4899 6.390624,-16.1094 -0.05181,-0.052 -0.122854,-0.076 -0.210937,-0.078 z m 103.96875,11.9317 c -1.213463,-0.1118 -1.398066,1.1653 0.09961,2.8203 1.3404,1.4811 1.424157,2.0644 0.410157,2.8476 -2.3813,1.8396 -9.743847,4.2777 -14.248047,4.7188 -2.4678,0.2417 -4.937782,0.7183 -5.488282,1.0586 -1.571099,0.9709 -36.996362,0.7191 -42.289062,-0.3008 -2.6125003,-0.5035 -4.75,-0.5552 -4.75,-0.1133 0,1.1444 2.5073997,1.7424 10.5,2.5 3.85,0.365 7.163281,0.8139 7.363281,0.9981 0.4548,0.4191 21.323722,-0.3447 30.419922,-1.1133 3.731,-0.3153 9.076253,-1.2543 11.876953,-2.086 8.5159,-2.529 12.272372,-7.7989 7.638672,-10.7168 -0.608575,-0.3832 -1.128715,-0.576 -1.533204,-0.6132 z m -84.244141,0.4726 c -3.6796,0 -3.791522,0.091 -2.232422,1.8164 1.494204,1.6532 1.745654,1.6726 2.814454,0.211 1.0756,-1.4708 1.314584,-1.4667 2.833984,0.053 0.9122,0.9122 1.9433688,1.3711 2.2929688,1.0215 1.3142,-1.3141 -1.9762831,-3.1016 -5.7089848,-3.1016 z m -7.996093,0.5645 c -0.674769,-0.068 -0.637219,0.5833 0.191406,1.9101 0.8358,1.3383 1.5611,1.6479 2.25,0.959 0.6889,-0.6889 0.53619,-1.32 -0.474609,-1.959 -0.899888,-0.5689 -1.561936,-0.8694 -1.966797,-0.9101 z m -2.310547,0.3925 c -0.36066,-0.018 -1.196075,0.6243 -2.007813,1.5723 -0.9278,1.0836 -1.297512,1.9707 -0.820312,1.9707 1.0996,0 3.549225,-2.8981 2.953125,-3.4941 -0.03065,-0.031 -0.07348,-0.046 -0.125,-0.049 z m 18.5292966,2.9981 c -0.1899305,0 -0.3824093,0.6405 -0.7011718,1.7949 -0.8987002,3.255 -3.0818754,3.6233 -3.859375,0.6504 -0.3248,-1.2423 -1.0120941,-1.8154 -1.6835938,-1.4004 -0.6204,0.386 -0.908659,1.2956 -0.630859,2.0195 0.2777,0.7238 -0.178472,1.578 -1.013672,1.8985 -2.0946,0.8038 -2.058833,0.8221 -2.644531,-1.418 -0.287704,-1.1 -1.026224,-2 -1.640626,-2 -1.220598,0 -0.918237,5.8169 0.414063,7.9727 0.6175,0.9991 0.993825,0.9237 1.703125,-0.3438 1.1445,-2.0452 4.8125,-2.1436 4.8125,-0.1289 0,0.825 0.45,1.5 1,1.5 0.55,0 1,-0.9 1,-2 0,-2.2597 1.0362031,-2.5634 2.7832031,-0.8164 1.9065,1.9065 2.4382125,0.3107 1.4453125,-4.3437 -0.4996687,-2.3425 -0.7401786,-3.3883 -0.984375,-3.3848 z M -6.25,1375.3926 c -0.1666625,-0.012 -0.416675,-0.01 -0.75,0.014 -0.825,0.047 -2.6250003,0.4444 -4,0.8848 l -2.5,0.8008 2.5,0.084 c 1.3749997,0.046 3.175,-0.3516 4,-0.8848 0.999975,-0.6465 1.2499875,-0.8621 0.75,-0.8984 z m -14.679688,0.2578 c -3.127299,0.082 -3.707643,0.3723 -2.839843,1.418 0.5999,0.7227 1.729817,1.0675 2.511719,0.7675 0.7819,-0.3 2.059843,-0.5449 2.839843,-0.5449 0.78,0 1.417969,-0.3916 1.417969,-0.8711 0,-0.4795 -1.767888,-0.8265 -3.929688,-0.7695 z M -92.5,1384.291 c 0.825,0 1.5,0.1765 1.5,0.3926 0,0.2162 -0.675,0.6521 -1.5,0.9687 -0.825,0.3166 -1.5,0.1403 -1.5,-0.3925 0,-0.5327 0.675,-0.9688 1.5,-0.9688 z m 37.558594,0 c 0.5825,0 0.781306,0.45 0.441406,1 -0.3399,0.55 -0.816094,1 -1.058594,1 -0.2426,0 -0.441406,-0.45 -0.441406,-1 0,-0.55 0.476194,-1 1.058594,-1 z m -23.404297,1.0781 c 0.4654,0.043 -1.404297,0.9072 -4.154297,1.9219 -5.0158,1.8508 -7.5,2.3705 -7.5,1.5703 0,-0.4958 10.387597,-3.6082 11.654297,-3.4922 z m 5.833984,1.3086 c 0.137374,-0.014 0.223938,-0.01 0.25,0.018 0.1779,0.1778 -1.99909,1.3218 -4.83789,2.543 -4.9157,2.1147 -12.985657,3.9859 -11.876953,2.7539 0.648279,-0.7204 14.404242,-5.112 16.464843,-5.3145 z m 1.154297,3.2598 c 0.412158,0.018 0.703503,0.1061 0.810547,0.2793 0.2644,0.4278 -1.243263,1.2942 -3.351563,1.9258 -4.7236,1.4153 -5.800077,1.4465 -4.484374,0.1308 1.182837,-1.1828 5.239372,-2.4122 7.02539,-2.3359 z m -19.724609,2.4766 c 0.3474,0.014 0.644397,0.1072 0.810547,0.2734 0.3323,0.3323 -0.2584,0.5684 -1.3125,0.5254 -1.165,-0.048 -1.401216,-0.2863 -0.603516,-0.6055 0.36095,-0.1444 0.758069,-0.2076 1.105469,-0.1933 z m 18.890625,1.8925 c 1.4573,0.013 1.484106,0.149 0.191406,0.9844 -1.9584,1.2656 -3.2822,1.2656 -2.5,0 0.3399,-0.55 1.378594,-0.9944 2.308594,-0.9844 z"
       id="path8295"
       inkscape:connector-curvature="0"
       sodipodi:nodetypes="csscccssssscssccssssscccsccscscssssssssssccsccccscsscsscccccccccccccscccsscsscccsccccsccssccsccccccccsssssscccsscssssscsssscsscsccccccssssscsccccsscscssssssscssscccccccccscccscccsscscsscsccsscccscccccccccsccscsscccccccccccccscccccscsscssssssssscssccccsccccsccccccccscccscssccssscccccsscscscsscsccccsscssssscscccccssccccccccsssccsccccscccccsscscccccscsccsscccccccccsscscscscccsscscssccccsccccccsscscccccccccccssscscccccccssccsccsscscccscccsccsssccccccscsssscccccccscssccsscsccscccsscccccccccscccssssssccssccsccccssccsccccsccccccccsccccccsscccscssccccscccccccscscssscsccscscccsccssscssssssssssccssscscscscccscccscsccccsccccscccccccccscc" />
  </g>
</svg>
